<svg width="98" height="27" viewBox="0 0 98 27" fill="none" xmlns="http://www.w3.org/2000/svg">
<path d="M1.01991 26.9278V22.7868H2.39734C3.09508 22.7868 3.63242 22.9774 4.00936 23.3586C4.39031 23.7357 4.58078 24.2353 4.58078 24.8573C4.58078 25.4792 4.39031 25.9808 4.00936 26.362C3.63242 26.7392 3.09508 26.9278 2.39734 26.9278H1.01991ZM2.36727 23.3646H1.6996V26.35H2.36727C2.88455 26.35 3.2635 26.2115 3.5041 25.9347C3.74871 25.6538 3.87101 25.2946 3.87101 24.8573C3.87101 24.4199 3.74871 24.0628 3.5041 23.7859C3.2635 23.505 2.88455 23.3646 2.36727 23.3646Z" fill="#F3EAD2"/>
<path d="M7.2137 26.9278V22.7868H7.8934V26.9278H7.2137Z" fill="#F3EAD2"/>
<path d="M14 26.9278L13.9097 26.3801H13.8917C13.615 26.7933 13.1779 27 12.5804 27C11.9749 27 11.4817 26.7994 11.1007 26.3981C10.7238 25.9928 10.5353 25.4792 10.5353 24.8573C10.5353 24.2313 10.7278 23.7177 11.1128 23.3164C11.4977 22.9152 11.999 22.7145 12.6165 22.7145C13.1098 22.7145 13.5168 22.8389 13.8376 23.0877C14.1624 23.3325 14.3649 23.6475 14.4451 24.0327H13.7534C13.6892 23.824 13.5609 23.6535 13.3684 23.5211C13.1759 23.3846 12.9253 23.3164 12.6165 23.3164C12.2035 23.3164 11.8707 23.4609 11.618 23.7498C11.3654 24.0347 11.2391 24.4038 11.2391 24.8573C11.2391 25.3107 11.3654 25.6819 11.618 25.9708C11.8707 26.2557 12.1975 26.3981 12.5985 26.3981C12.9473 26.3981 13.2401 26.3018 13.4767 26.1092C13.7133 25.9166 13.8316 25.6578 13.8316 25.3328V25.2605H12.6165V24.7128H14.4391V26.9278H14Z" fill="#F3EAD2"/>
<path d="M17.2517 26.9278V22.7868H17.9314V26.9278H17.2517Z" fill="#F3EAD2"/>
<path d="M20.3568 23.3586V22.7868H23.8816V23.3586H22.456V26.9278H21.7763V23.3586H20.3568Z" fill="#F3EAD2"/>
<path d="M25.4407 26.9278L26.9805 22.7868H27.7805L29.3203 26.9278H28.6046L28.2497 25.9226H26.4813L26.1264 26.9278H25.4407ZM27.3835 23.4609H27.3595L26.6858 25.3568H28.0512L27.3835 23.4609Z" fill="#F3EAD2"/>
<path d="M31.7506 26.9278V22.7868H32.4303V26.3439H34.4333V26.9278H31.7506Z" fill="#F3EAD2"/>
<path d="M39.7161 23.3586V22.7868H43.2409V23.3586H41.8153V26.9278H41.1357V23.3586H39.7161Z" fill="#F3EAD2"/>
<path d="M45.6563 26.9278V22.7868H47.3285C47.8097 22.7868 48.1766 22.8971 48.4292 23.1178C48.6858 23.3385 48.8142 23.6475 48.8142 24.0447C48.8142 24.3497 48.738 24.6125 48.5856 24.8332C48.4332 25.0499 48.2127 25.2024 47.9239 25.2906L48.9645 26.9278H48.2247L47.2322 25.3689H46.336V26.9278H45.6563ZM47.3224 23.3525H46.336V24.8091H47.3224C47.5791 24.8091 47.7776 24.7389 47.9179 24.5985C48.0583 24.458 48.1285 24.2754 48.1285 24.0507C48.1285 23.8341 48.0583 23.6635 47.9179 23.5391C47.7776 23.4147 47.5791 23.3525 47.3224 23.3525Z" fill="#F3EAD2"/>
<path d="M51.123 26.9278L52.6629 22.7868H53.4629L55.0027 26.9278H54.2869L53.932 25.9226H52.1636L51.8087 26.9278H51.123ZM53.0659 23.4609H53.0418L52.3681 25.3568H53.7335L53.0659 23.4609Z" fill="#F3EAD2"/>
<path d="M57.0573 24.8573C57.0573 24.2353 57.2437 23.7237 57.6167 23.3225C57.9936 22.9172 58.4848 22.7145 59.0903 22.7145C59.5796 22.7145 59.9786 22.8409 60.2873 23.0937C60.6001 23.3465 60.7986 23.6896 60.8828 24.123H60.1911C60.0427 23.5853 59.6758 23.3164 59.0903 23.3164C58.6893 23.3164 58.3665 23.4589 58.1219 23.7438C57.8813 24.0287 57.761 24.3998 57.761 24.8573C57.761 25.3067 57.8813 25.6758 58.1219 25.9647C58.3665 26.2537 58.6833 26.3981 59.0723 26.3981C59.6698 26.3981 60.0427 26.1293 60.1911 25.5916H60.8828C60.7986 26.0249 60.5981 26.368 60.2813 26.6208C59.9645 26.8736 59.5595 27 59.0663 27C58.4648 27 57.9796 26.8014 57.6107 26.4041C57.2417 26.0029 57.0573 25.4872 57.0573 24.8573Z" fill="#F3EAD2"/>
<path d="M63.5034 26.9278V22.7868H64.1831V24.8813L66.126 22.7868H66.9199L65.2297 24.5804L67.0041 26.9278H66.2282L64.7906 25.0439L64.1831 25.6879V26.9278H63.5034Z" fill="#F3EAD2"/>
<path d="M69.4211 26.9278V22.7868H72.3204V23.3646H70.1008V24.5383H71.8813V25.098H70.1008V26.35H72.3745V26.9278H69.4211Z" fill="#F3EAD2"/>
<path d="M75.051 26.9278V22.7868H76.7232C77.2044 22.7868 77.5713 22.8971 77.8239 23.1178C78.0806 23.3385 78.2089 23.6475 78.2089 24.0447C78.2089 24.3497 78.1327 24.6125 77.9803 24.8332C77.828 25.0499 77.6074 25.2024 77.3187 25.2906L78.3593 26.9278H77.6194L76.627 25.3689H75.7307V26.9278H75.051ZM76.7172 23.3525H75.7307V24.8091H76.7172C76.9738 24.8091 77.1723 24.7389 77.3127 24.5985C77.453 24.458 77.5232 24.2754 77.5232 24.0507C77.5232 23.8341 77.453 23.6635 77.3127 23.5391C77.1723 23.4147 76.9738 23.3525 76.7172 23.3525Z" fill="#F3EAD2"/>
<path d="M88.431 10.682L88.4212 15.7239C88.4198 16.7014 89.3258 16.5174 89.2317 17.1578C89.2135 17.2828 88.9845 17.4401 88.8272 17.4415L86.2607 17.4471C86.1203 17.4471 85.9011 17.3109 85.8534 17.1873C85.6455 16.641 86.6499 16.6284 86.6499 15.6467V10.4222C86.6513 8.71298 85.7466 7.03047 83.8236 7.04592C81.8092 7.06136 80.7149 8.88994 80.7135 10.6623L80.7065 15.7267C80.7065 16.6017 81.6308 16.5595 81.4833 17.1213C81.4496 17.2463 81.2024 17.4233 81.0563 17.4233H78.5826C78.4561 17.4219 78.2482 17.2997 78.1977 17.1986C77.9294 16.6564 78.9436 16.5595 78.9436 15.5582V8.38434C78.9436 7.27484 77.8325 7.47708 77.7664 7.01783C77.7482 6.89002 77.8634 6.6302 78.0038 6.56841L80.1573 5.64289C80.2373 5.60778 80.4607 5.63587 80.5323 5.66957C80.6166 5.7089 80.7163 5.8999 80.7163 5.9954L80.729 7.98267C81.215 7.26922 81.6842 6.62318 82.4441 6.185C83.6171 5.50947 85.0892 5.46172 86.2987 6.08107C87.1626 6.52347 87.6612 7.27624 88.0883 8.21721C89.0098 6.37038 90.753 5.4252 92.7393 5.68502C94.9967 5.97995 95.9645 7.72566 96.1752 9.83793L96.7132 15.2436C96.8635 16.7505 97.9803 16.4921 97.9999 17.0806C98.0042 17.2196 97.7218 17.4528 97.5589 17.4528L94.1103 17.4556C93.9572 17.4556 93.7226 17.2842 93.7057 17.1606C93.599 16.3615 95.0121 17.0525 94.8295 15.2394L94.3168 10.168C94.2606 9.61462 94.0808 9.06268 93.8729 8.57534C93.4768 7.64701 92.6634 7.12316 91.6745 7.03608C89.5197 6.84368 88.4352 8.79444 88.431 10.6806V10.682Z" fill="white"/>
<path d="M47.0326 12.953C47.0411 15.9107 44.3412 17.3502 41.6989 17.3502H35.3468C35.2415 17.3502 35.1038 17.089 35.1136 16.9879C35.1726 16.4219 35.9803 16.4472 35.9803 15.3026L35.986 2.67532C35.986 1.48717 35.0027 1.8144 35.1249 1.07988C35.1572 0.881858 35.4072 0.791974 35.653 0.791974H40.8027C43.254 0.789166 45.7824 1.9085 45.774 4.70753C45.7684 6.52768 44.6376 7.95598 42.8677 8.52337C45.2922 9.06127 47.1197 10.3828 47.0326 12.9544V12.953ZM42.8747 7.31135C44.1333 6.16393 44.1811 3.51376 42.7483 2.50398C41.4756 1.60655 40.1018 1.77929 38.5973 1.79193C38.211 1.83266 37.8978 2.0686 37.8978 2.50538L37.8837 8.12452C39.5132 8.0866 41.6048 8.45596 42.8761 7.31135H42.8747ZM44.6657 11.2424C44.3581 10.6146 43.7976 10.2227 43.2118 9.86601C42.4308 9.52614 41.6076 9.26772 40.7311 9.26632L37.8879 9.25789V15.5975C37.8879 15.9725 38.2251 16.2758 38.5791 16.2772L41.2101 16.2829C41.8858 16.2843 42.5614 16.1663 43.1823 15.9261C45.1644 15.1579 45.3962 12.7381 44.6643 11.2438L44.6657 11.2424Z" fill="white"/>
<path d="M8.99293 10.1441C8.99293 10.2775 8.90303 10.4924 8.8342 10.5528C8.75413 10.623 8.48443 10.6427 8.3875 10.5626L7.7315 10.0163C7.5545 9.40395 7.09516 9.41799 6.59789 9.4194L2.85152 9.49664L2.86275 15.5118C2.86416 16.5848 3.87415 16.5118 3.68451 17.1171C3.64518 17.2421 3.39795 17.4134 3.25045 17.4134L0.620826 17.4219C0.490188 17.4219 0.279481 17.3348 0.213459 17.2477C-0.172838 16.7519 0.94953 16.5652 0.94953 15.2773L0.952339 2.52644C0.952339 1.32987 -0.0731031 1.5307 0.00415628 0.900111C0.025227 0.723153 0.248577 0.589731 0.477546 0.589731L9.62365 0.581305C9.78519 0.581305 10.0296 0.568665 10.1209 0.629056C10.2122 0.689446 10.3035 0.900111 10.3204 1.02932L10.6308 3.36208C10.6617 3.59241 10.6266 3.86487 10.4609 3.91964C10.2178 4.0011 9.88774 3.96318 9.79503 3.73566C9.33568 2.6079 8.37345 1.58828 7.09797 1.5925L3.5328 1.60373C3.12965 1.60373 2.85713 1.91411 2.85713 2.29752L2.85994 8.45596L6.66532 8.44894C7.16399 8.44894 7.6121 8.17367 7.91832 7.80992L8.66282 7.17231C8.7162 7.11472 8.94798 7.07821 9.02665 7.09366C9.12217 7.11332 9.26264 7.29871 9.26264 7.41387L8.99293 10.1399V10.1441Z" fill="white"/>
<path d="M17.0321 15.1705C17.0335 16.3938 18.111 16.1733 18.0885 16.7491C18.0618 17.4485 16.5882 17.4443 15.9336 17.2969C15.6063 17.2238 15.3549 16.905 15.3156 16.5792L15.1835 15.4599C14.2578 17.0104 12.6733 17.7336 10.9343 17.478C9.07161 17.2028 7.60649 15.7843 7.58401 13.8391L7.59244 9.9601C7.59104 9.77191 7.55311 9.61742 7.47866 9.52333C7.23705 9.22137 6.63442 9.27193 6.46867 8.64556C6.43495 8.52197 6.55857 8.64275 6.69202 8.57253C6.82547 8.5023 7.11343 8.44894 7.37892 8.32113C8.05319 7.99952 8.88759 6.99816 9.16572 7.16528C9.2486 7.21444 9.33569 7.38859 9.33569 7.52061L9.36379 13.1074C9.368 13.9529 9.5759 14.8068 10.1827 15.4009C11.454 16.6466 13.6159 16.4163 14.6413 14.9669C15.0136 14.4416 15.1877 13.7844 15.2088 13.1468C15.2552 11.7297 15.258 10.3463 15.2172 8.94049C15.1765 7.53465 13.9165 7.98407 13.8195 7.40965C13.7985 7.28466 13.9052 7.00518 14.0373 6.94057C14.5921 6.67233 16.4028 5.8086 16.8411 6.06842C16.9408 6.12741 17.0167 6.32824 17.0167 6.50099L17.0279 15.1691L17.0321 15.1705Z" fill="white"/>
<path d="M63.0731 14.7675C61.9353 16.9542 59.7383 18.0047 57.3643 17.6761C55.2601 17.3839 53.5337 16.0877 52.8271 14.0526C51.6134 10.5514 53.2373 6.35634 57.1101 5.69064C59.6723 5.25105 62.2373 6.15832 63.3007 8.65118C64.1337 10.6019 64.062 12.8631 63.0717 14.7675H63.0731ZM60.1134 16.2449C61.0194 15.8292 61.6094 14.9978 61.8412 14.047C62.3244 12.0597 61.8847 9.90956 60.6851 8.27199C59.8802 7.17232 58.6482 6.65549 57.3292 6.77346C56.2139 6.87317 55.2741 7.49253 54.76 8.48967C53.8287 10.3 54.2459 13.0934 55.3949 14.8237C56.4232 16.3699 58.3575 17.0511 60.1148 16.2449H60.1134Z" fill="white"/>
<path d="M75.8574 14.3981C74.3263 17.8825 70.1669 18.4682 67.3659 16.7253C64.2488 14.7871 63.9243 10.255 66.1283 7.60347C67.2774 6.22151 68.8914 5.62041 70.6557 5.60356C73.6829 5.57547 76.1552 7.71021 76.3954 10.7564C76.4937 12.012 76.3673 13.2381 75.8588 14.3967L75.8574 14.3981ZM72.6209 16.3475C73.4132 15.9023 73.9147 15.1579 74.1942 14.3279C74.8839 12.283 74.6058 9.99241 73.3725 8.22844C72.2698 6.64986 70.2329 6.04455 68.5107 6.89002C65.7645 8.23827 65.9654 13.5344 68.3998 15.7843C69.5432 16.8418 71.2148 17.1382 72.6209 16.3475Z" fill="white"/>
<path d="M20.3023 17.4205C20.1899 17.4205 20.0115 17.3348 19.9511 17.2604C19.5508 16.7646 20.7308 16.5904 20.7308 15.304L20.7209 2.79751C20.7209 2.22309 20.3023 1.81721 19.8219 1.76104C19.5831 1.73295 19.3752 1.57986 19.3569 1.39026C19.3429 1.23297 19.4834 0.94506 19.6562 0.88186L21.9894 0.0167301C22.0765 -0.0155719 22.3054 -0.000123101 22.3785 0.0546498C22.4515 0.109423 22.5681 0.294808 22.5681 0.408567L22.578 15.3896C22.578 16.6087 23.7368 16.5567 23.3983 17.2028C23.3379 17.3179 23.1103 17.4247 22.9418 17.4247L20.3037 17.4219L20.3023 17.4205Z" fill="white"/>
<path d="M25.8172 17.4219C25.6501 17.4219 25.445 17.3067 25.4127 17.2042C25.2202 16.6017 26.212 16.568 26.212 15.3124L26.2063 2.768C26.2063 2.12337 25.7484 1.75119 25.1823 1.67816C25.0657 1.66271 24.9716 1.36357 24.9983 1.24981C25.025 1.13605 25.1725 0.936622 25.2947 0.893085L27.538 0.0869407C27.7487 0.0111013 28.0381 0.218957 28.0381 0.478777L28.0479 15.3924C28.0479 16.5778 28.9708 16.4036 28.9132 17.082C28.8978 17.266 28.6351 17.4317 28.4103 17.4303L25.8186 17.4233L25.8172 17.4219Z" fill="white"/>
<path d="M48.6115 17.4317C48.4808 17.4317 48.2673 17.2856 48.235 17.1887C48.0678 16.6887 49.0216 16.5244 49.0216 15.391V2.84385C49.0202 2.32561 48.7337 1.85091 48.3024 1.72451C48.11 1.66833 47.9288 1.53913 47.9133 1.39307C47.8993 1.25684 48.0383 1.01527 48.1872 0.961905L50.3042 0.207725C50.3828 0.179637 50.6258 0.207725 50.6975 0.247049C50.7846 0.296204 50.8913 0.473163 50.8913 0.624842L50.8969 15.6705C50.8969 16.5371 51.7917 16.4851 51.7496 17.0778C51.7384 17.2379 51.4883 17.4275 51.2931 17.4275L48.6101 17.4317H48.6115Z" fill="white"/>
</svg>
