<svg width="24" height="24" viewBox="0 0 24 24" fill="none" xmlns="http://www.w3.org/2000/svg">
<path d="M7.65146 1.5735C6.53396 1.626 5.77122 1.8045 5.10447 2.06625C4.41446 2.3355 3.82947 2.69625 3.24672 3.2805C2.66471 3.86475 2.30622 4.4505 2.03922 5.14125C1.78047 5.8095 1.60572 6.573 1.55622 7.69125C1.50672 8.80875 1.49622 9.16875 1.50147 12.0195C1.50672 14.8703 1.51947 15.228 1.57347 16.3485C1.62672 17.4653 1.80447 18.228 2.06622 18.8955C2.33547 19.5855 2.69622 20.1705 3.28047 20.7533C3.86472 21.3353 4.44971 21.693 5.14271 21.9608C5.81021 22.2188 6.57446 22.395 7.69196 22.4438C8.80946 22.4925 9.16947 22.5038 12.0202 22.4985C14.871 22.4933 15.2295 22.4805 16.35 22.4273C17.4705 22.374 18.2287 22.1955 18.8962 21.9345C19.5862 21.6645 20.172 21.3045 20.754 20.7195C21.336 20.1345 21.6945 19.5488 21.9607 18.8573C22.2195 18.1898 22.395 17.4255 22.4437 16.3088C22.4925 15.1883 22.5045 14.8305 22.4985 11.979C22.4925 9.1275 22.4805 8.7705 22.4272 7.65075C22.374 6.531 22.1962 5.7705 21.9345 5.103C21.6645 4.413 21.3045 3.828 20.7202 3.24525C20.136 2.6625 19.5495 2.30475 18.858 2.0385C18.1897 1.77975 17.4262 1.6035 16.3087 1.5555C15.1912 1.5075 14.8312 1.49475 11.9797 1.5C9.12821 1.50525 8.77121 1.518 7.65146 1.572M7.77447 20.5538C6.75072 20.5095 6.19496 20.3393 5.82446 20.1968C5.33396 20.0078 4.98446 19.779 4.61546 19.4138C4.24646 19.0485 4.01922 18.6975 3.82797 18.2078C3.68397 17.8373 3.51072 17.2823 3.46272 16.2585C3.41097 15.1523 3.39972 14.82 3.39372 12.0165C3.38772 9.213 3.39822 8.8815 3.44697 7.7745C3.49047 6.7515 3.66147 6.195 3.80397 5.8245C3.99297 5.33325 4.22096 4.9845 4.58696 4.6155C4.95296 4.2465 5.30321 4.01925 5.79296 3.828C6.16271 3.68325 6.71846 3.5115 7.74146 3.46275C8.84846 3.41025 9.18071 3.39975 11.9835 3.39375C14.7862 3.38775 15.1192 3.39825 16.227 3.447C17.25 3.49125 17.8065 3.66075 18.1762 3.804C18.6667 3.993 19.0162 4.22025 19.3852 4.587C19.7542 4.95375 19.9815 5.3025 20.1735 5.79375C20.3182 6.16275 20.49 6.71775 20.538 7.7415C20.5905 8.8485 20.6025 9.18075 20.6077 11.9835C20.613 14.7863 20.6032 15.1193 20.5545 16.2255C20.5095 17.2493 20.34 17.805 20.1975 18.1763C20.0085 18.6668 19.7805 19.0163 19.4137 19.3853C19.047 19.7543 18.6975 19.9815 18.2077 20.1728C17.838 20.3168 17.2822 20.4893 16.26 20.538C15.153 20.5898 14.8207 20.601 12.0172 20.607C9.21372 20.613 8.88147 20.6018 7.77447 20.5538ZM16.3342 6.38775C16.3357 7.08375 16.9005 7.647 17.5965 7.6455C18.2925 7.644 18.8557 7.07925 18.8542 6.38325C18.8527 5.68725 18.288 5.124 17.592 5.1255C16.896 5.127 16.3335 5.69175 16.3342 6.38775ZM6.60897 12.0098C6.61497 14.9873 9.03297 17.3963 12.0105 17.3903C14.988 17.3843 17.3977 14.9663 17.3925 11.9888C17.3865 9.01125 14.9677 6.6015 11.9902 6.6075C9.01272 6.6135 6.60297 9.03225 6.60897 12.0098ZM8.50122 12.006C8.49747 10.0733 10.0612 8.50275 11.9947 8.499C13.9275 8.49525 15.498 10.059 15.5017 11.9925C15.5055 13.9253 13.9417 15.4958 12.0082 15.4995C10.0755 15.5033 8.50497 13.9403 8.50122 12.0075" fill="#EEE3D2"/>
</svg>
