<svg width="40" height="40" viewBox="0 0 40 40" fill="none" xmlns="http://www.w3.org/2000/svg">
<path d="M12.7525 2.6225C10.89 2.71 9.61877 3.0075 8.50752 3.44375C7.35752 3.8925 6.38252 4.49375 5.41127 5.4675C4.44127 6.44125 3.84377 7.4175 3.39877 8.56875C2.96752 9.6825 2.67627 10.955 2.59377 12.8188C2.51127 14.6813 2.49377 15.2813 2.50252 20.0325C2.51127 24.7838 2.53252 25.38 2.62252 27.2475C2.71127 29.1088 3.00752 30.38 3.44377 31.4925C3.89252 32.6425 4.49377 33.6175 5.46752 34.5888C6.44127 35.5588 7.41627 36.155 8.57127 36.6013C9.68377 37.0313 10.9575 37.325 12.82 37.4063C14.6825 37.4875 15.2825 37.5063 20.0338 37.4975C24.785 37.4888 25.3825 37.4675 27.25 37.3788C29.1175 37.29 30.3813 36.9925 31.4938 36.5575C32.6438 36.1075 33.62 35.5075 34.59 34.5325C35.56 33.5575 36.1575 32.5813 36.6013 31.4288C37.0325 30.3163 37.325 29.0425 37.4063 27.1813C37.4875 25.3138 37.5075 24.7175 37.4975 19.965C37.4875 15.2125 37.4675 14.6175 37.3788 12.7513C37.29 10.885 36.9938 9.6175 36.5575 8.505C36.1075 7.355 35.5075 6.38 34.5338 5.40875C33.56 4.4375 32.5825 3.84125 31.43 3.3975C30.3163 2.96625 29.0438 2.6725 27.1813 2.5925C25.3188 2.5125 24.7188 2.49125 19.9663 2.5C15.2138 2.50875 14.6188 2.53 12.7525 2.62M12.9575 34.2563C11.2513 34.1825 10.325 33.8988 9.70752 33.6613C8.89002 33.3463 8.30752 32.965 7.69252 32.3563C7.07752 31.7475 6.69877 31.1625 6.38002 30.3463C6.14002 29.7288 5.85127 28.8038 5.77127 27.0975C5.68502 25.2538 5.66627 24.7 5.65627 20.0275C5.64627 15.355 5.66377 14.8025 5.74502 12.9575C5.81752 11.2525 6.10252 10.325 6.34002 9.7075C6.65502 8.88875 7.03502 8.3075 7.64502 7.6925C8.25502 7.0775 8.83877 6.69875 9.65502 6.38C10.2713 6.13875 11.1975 5.8525 12.9025 5.77125C14.7475 5.68375 15.3013 5.66625 19.9725 5.65625C24.6438 5.64625 25.1988 5.66375 27.045 5.745C28.75 5.81875 29.6775 6.10125 30.2938 6.34C31.1113 6.655 31.6938 7.03375 32.3088 7.645C32.9238 8.25625 33.3025 8.8375 33.6225 9.65625C33.8638 10.2713 34.15 11.1963 34.23 12.9025C34.3175 14.7475 34.3375 15.3013 34.3463 19.9725C34.355 24.6438 34.3388 25.1988 34.2575 27.0425C34.1825 28.7488 33.9 29.675 33.6625 30.2938C33.3475 31.1113 32.9675 31.6938 32.3563 32.3088C31.745 32.9238 31.1625 33.3025 30.3463 33.6213C29.73 33.8613 28.8038 34.1488 27.1 34.23C25.255 34.3163 24.7013 34.335 20.0288 34.345C15.3563 34.355 14.8025 34.3363 12.9575 34.2563ZM27.2238 10.6463C27.2263 11.8063 28.1675 12.745 29.3275 12.7425C30.4875 12.74 31.4263 11.7988 31.4238 10.6388C31.4213 9.47875 30.48 8.54 29.32 8.5425C28.16 8.545 27.2225 9.48625 27.2238 10.6463ZM11.015 20.0163C11.025 24.9788 15.055 28.9938 20.0175 28.9838C24.98 28.9738 28.9963 24.9438 28.9875 19.9813C28.9775 15.0188 24.9463 11.0025 19.9838 11.0125C15.0213 11.0225 11.005 15.0538 11.015 20.0163ZM14.1688 20.01C14.1625 16.7888 16.7688 14.1713 19.9913 14.165C23.2125 14.1588 25.83 16.765 25.8363 19.9875C25.8425 23.2088 23.2363 25.8263 20.0138 25.8325C16.7925 25.8388 14.175 23.2338 14.1688 20.0125" fill="#EEE3D2"/>
</svg>
