<svg width="108" height="138" viewBox="0 0 108 138" fill="none" xmlns="http://www.w3.org/2000/svg">
<path d="M87.9292 14.659C91.3723 18.3185 94.3471 21.7155 96.0043 26.8985C98.7577 35.5043 96.2462 43.3844 99.89 52.3298C102.252 58.1356 109.581 65.9796 107.692 72.5935C107.641 72.7737 106.256 74.7604 106.117 74.8685C104.692 75.9699 100.456 75.4861 99.9312 76.6648L96.73 105.859C93.5905 109.58 74.198 109.966 72.5768 111.531C70.3381 113.687 71.5372 124.208 71.3211 127.764C71.0071 132.88 71.11 134.635 65.9274 136.257C62.1292 137.446 58.8919 137.029 55.104 137.26C45.7269 137.837 33.5654 138.614 24.3014 137.204C21.3524 136.756 16.1903 135.788 15.7374 132.396C15.9433 126.045 16.319 119.673 16.7976 113.342C16.9675 111.103 17.7755 108.386 17.8424 106.162C18.1409 96.8564 11.9855 90.7676 7.96087 83.0831C-10.1501 48.4593 2.85026 5.57457 44.821 0.443019C60.7705 -1.50769 76.8948 2.93931 87.9241 14.6642L87.9292 14.659ZM47.4716 24.7883C37.8628 15.848 24.0647 23.8773 24.6874 36.2506C25.2741 47.9394 38.7532 57.4871 47.4098 63.7201C48.6656 63.8488 52.8344 61.0025 54.0644 60.0915C60.2764 55.5004 70.2866 46.1431 72.1805 38.6079C76.0662 23.1567 58.717 14.587 48.9332 26.6566C48.2127 26.2346 47.9811 25.2618 47.4716 24.7883Z" fill="#E0E3C2"/>
</svg>
