<svg width="28" height="28" viewBox="0 0 28 28" fill="none" xmlns="http://www.w3.org/2000/svg">
<path d="M14.7565 18.914L14.7384 19.6722C13.186 20.09 11.007 20.9641 10.0709 22.318C9.52682 23.1071 8.75578 26.9804 8.33803 27.0629C7.56956 27.215 7.36841 24.7523 7.16469 24.1437C6.96097 23.5352 6.35496 22.2252 5.97331 21.7481C4.92376 20.4355 2.92783 20.0822 1.6333 19.1178C3.71692 17.8568 5.87532 17.7846 7.13891 15.3863C7.73202 14.2568 7.52056 12.8592 8.29418 11.8741C9.1039 11.7065 9.45462 14.7545 9.78212 15.4998C10.6744 17.5293 12.6394 18.5659 14.7539 18.9166L14.7565 18.914Z" fill="#C2C79C"/>
<path d="M21.4561 18.2306C21.1647 17.1037 20.7856 15.5848 19.963 14.7312C19.4344 14.182 17.2605 13.5166 17.4126 12.9003C18.4493 12.2402 19.4395 12.168 20.2673 11.1365C21.0951 10.105 20.961 8.94196 21.7269 7.94141C22.6191 9.02706 22.565 10.6439 23.6016 11.7012C24.3469 12.4619 25.5228 12.3433 26.152 13.2768C24.5016 14.2155 23.1194 14.4579 22.4309 16.4951C22.1988 17.1785 22.4257 18.3028 21.4587 18.2332L21.4561 18.2306Z" fill="#C2C79C"/>
<path d="M13.1936 0.87059C13.7326 1.47917 13.3071 3.71236 15.1122 4.72323C15.7569 5.08425 16.8168 4.88569 16.7368 5.80372C14.4417 6.28337 13.2529 7.83319 13.0724 10.1334L12.3066 10.1231C12.1493 8.6687 11.8269 7.22977 10.5453 6.37362C10.1146 6.08738 8.87681 5.89656 9.02638 5.31634C9.07537 5.12809 10.308 4.63813 10.6665 4.39057C12.0667 3.42612 12.224 2.4823 12.4355 0.852539L13.1936 0.868011V0.87059Z" fill="#C2C79C"/>
</svg>
