<svg width="40" height="40" viewBox="0 0 40 40" fill="none" xmlns="http://www.w3.org/2000/svg">
<path d="M25.6734 33.1685C25.6894 33.1901 25.8523 33.1731 25.8751 33.263C26.1519 34.3921 25.9594 35.956 26.7261 36.9451C27.2125 37.5734 29.4637 38.8266 27.1715 39.0918C26.1918 39.2056 24.7689 39.2785 23.8188 39.0542C23.2093 38.9097 22.9188 38.6923 22.7194 38.105C21.4674 34.4171 21.1769 29.6503 20.2439 25.7917C20.196 25.5937 20.196 25.2966 19.9579 25.2283C19.7392 25.5698 19.6412 25.827 19.5341 26.2276C18.551 29.9064 18.0281 33.8605 17.0552 37.5131C16.8809 38.1698 16.8159 38.8994 16.031 38.9928C15.5867 39.0451 12.1998 39.036 11.9879 38.9347C11.8455 38.8664 11.6563 38.5443 11.6712 38.3838C11.7031 38.0241 12.3923 37.7237 12.6315 37.4732C13.1499 36.928 13.5224 35.4643 13.6694 34.6994C14.3096 31.3576 14.4964 27.7779 15.1071 24.4179C15.1059 22.7788 14.1057 22.4932 13.1248 21.5336C11.981 20.4148 9.42801 17.4713 9.47928 15.8482C9.48725 15.6012 9.61371 15.286 9.72991 15.0663C9.98168 14.5951 10.958 13.4637 11.3601 13.0562C16.5619 7.79306 24.696 8.49534 29.4033 14.0214C30.4537 15.2541 30.473 15.5352 29.9421 17.0684C28.8792 20.137 26.8605 20.9759 25.2531 23.3024C24.459 24.452 24.8088 26.4314 24.9626 27.787C25.0446 28.5018 25.5071 32.9534 25.67 33.1719L25.6734 33.1685ZM24.3952 14.4198V19.1969L24.1662 19.2538C24.5923 19.5019 24.5707 19.0045 24.7359 18.7974C25.0765 18.3705 26.6076 16.8066 26.6486 16.3923C26.6669 16.2113 26.5495 16.0838 26.4345 15.9632C26.3 15.8209 24.475 14.3185 24.3952 14.4186V14.4198ZM15.4033 14.6485C15.27 14.5074 13.6101 15.6752 13.4711 15.8437C13.3675 15.9689 13.3515 16.0167 13.3435 16.1817C13.3048 16.9682 14.861 18.4912 15.4033 19.0842C15.499 17.5965 15.5297 16.1351 15.4033 14.6485Z" fill="#E4CBA7"/>
<path d="M19.5878 0.91259C22.0941 0.620068 23.8576 2.98073 23.4577 5.3505C23.2504 6.5775 21.938 7.99117 20.6871 8.15507C15.2496 8.86418 14.8622 1.46349 19.5878 0.91259Z" fill="#E4CBA7"/>
<path d="M28.9159 21.8374C29.2064 21.7714 29.4377 21.7965 29.7134 21.9023C30.1383 22.0651 31.9656 23.4366 32.3643 23.802C32.803 24.2049 33.5116 24.7103 32.9374 25.2885C32.6867 25.5401 32.4692 25.482 32.1661 25.3648C31.6933 25.1815 29.4639 23.5743 29.0082 23.176C28.5696 22.7924 28.0113 22.0457 28.9159 21.8374Z" fill="#E4CBA7"/>
<path d="M10.5969 21.8329C11.3215 21.7339 11.751 22.3974 11.1996 23.0143C10.8909 23.3592 8.29228 25.1861 7.86051 25.3659C7.10862 25.6789 6.60964 24.8457 7.04596 24.3222C7.43444 23.8566 8.67392 22.9939 9.22189 22.6296C9.56366 22.4031 10.2233 21.883 10.5969 21.8329Z" fill="#E4CBA7"/>
<path d="M9.80074 12.1194C9.67998 12.2366 9.10809 12.3413 8.911 12.3231C8.3972 12.273 6.11532 11.2316 5.6733 10.8946C5.0285 10.4029 5.30647 9.68472 6.11419 9.76326C6.40469 9.79171 8.90416 10.7 9.22315 10.8719C9.61276 11.0802 10.2382 11.6971 9.7996 12.1205L9.80074 12.1194Z" fill="#E4CBA7"/>
<path d="M29.8886 12.1148C29.426 11.5446 30.1574 11.0141 30.6587 10.8343C30.8615 10.7615 30.9093 10.7467 31.0836 10.6761C31.6703 10.4405 33.0397 9.85544 33.5865 9.77804C34.1721 9.69495 34.6927 10.0262 34.3031 10.6169C34.1618 10.8309 33.3382 11.2941 33.0682 11.4285C32.5885 11.6663 30.8216 12.4255 30.3989 12.3493C30.3146 12.3345 29.9319 12.166 29.8886 12.1137V12.1148Z" fill="#E4CBA7"/>
<path d="M11.4605 5.39486C11.7555 5.69649 12.7945 6.6321 12.9278 6.9417C13.052 7.23081 13.1169 7.60642 12.8332 7.81357C12.455 8.09016 12.0745 7.75439 11.7726 7.52902C11.4343 7.27633 9.70605 5.59291 9.57048 5.289C9.37909 4.8599 9.83136 4.40575 10.2233 4.4012C10.8122 4.39323 11.121 5.04884 11.4605 5.39486Z" fill="#E4CBA7"/>
<path d="M29.8283 4.42951C30.2726 4.3635 30.6417 4.78122 30.5176 5.23424C30.3455 5.86139 28.2881 7.26026 27.8085 7.87604C26.9028 8.18905 26.7627 7.44124 27.1899 6.8027C27.4166 6.46237 28.819 5.08057 29.1733 4.80512C29.3373 4.67764 29.6335 4.45797 29.8295 4.42951H29.8283Z" fill="#E4CBA7"/>
<path d="M32.6786 17.1821C33.1149 17.1275 35.0368 17.0638 35.3592 17.1685C35.6155 17.2516 35.7157 17.7399 35.644 17.98C35.4104 18.7688 32.1693 18.8405 31.8492 18.1747C31.4949 17.4382 32.1135 17.2539 32.6786 17.1821Z" fill="#E4CBA7"/>
<path d="M8.09285 18.2613C7.53463 18.8179 5.16161 18.613 4.54528 18.1646C4.0725 17.8197 4.4644 17.2392 4.99642 17.1572C5.42249 17.0912 7.70779 17.1094 8.00057 17.328C8.25462 17.518 8.31386 18.0405 8.09285 18.2613Z" fill="#E4CBA7"/>
</svg>
